<svg width="470" height="470" viewBox="0 0 470 470" fill="none" xmlns="http://www.w3.org/2000/svg">
<path d="M452.8 347.228C399.704 419.206 287.415 415.472 238.202 336.601C249.391 337.376 259.314 335.452 266.648 338.956C328.66 368.597 368.842 363.025 421.592 315.318L452.8 347.228Z" fill="#F2C02A"/>
<path d="M316.115 49.093C327.16 38.4945 337.457 28.5854 349.105 17.4987C381.751 44.0954 400.044 78.9352 399.9 121.875C399.756 167.83 379.306 204.077 337.226 229.41C337.917 220.966 335.702 210.683 339.729 204.364C368.117 159.788 365.73 96.628 316.115 49.093Z" fill="#F2C02A"/>
<path d="M49.3445 155.652L19.8916 120.41C71.9231 50.4715 186.542 54.349 231.469 130.606C219.648 134.282 209.868 134.685 197.99 127.734C150.675 100.189 93.2649 109.926 55.4997 150.195C54.2341 151.717 52.7098 152.722 49.3445 155.652Z" fill="#F2C02A"/>
<path d="M160.597 161.023C152.745 178.256 141.757 183.167 128.066 187.16C82.305 200.458 49.0554 245.724 47.8474 293.431C47.8474 298.113 47.8474 302.795 47.8474 309.142C34.2714 309.142 21.9611 309.832 9.73696 308.683C6.45803 308.367 1.10819 302.623 1.10819 299.176C-1.76807 234.724 40.5417 174.005 107.702 163.952C124.356 161.339 141.527 161.942 160.597 161.023Z" fill="#F2C02A"/>
<path d="M307.116 158.553C293.425 151.861 287.529 143.043 284.106 129.831C272.601 84.3637 225.805 49.0929 177.886 47.5707C172.795 47.3983 167.676 47.5707 161.405 47.5707C161.405 37.6328 161.405 29.5907 161.405 21.5772C161.405 0.121849 161.405 0.121855 183.437 0.581408C259.025 2.21857 318.219 70.692 308.238 144.91C307.72 148.988 307.548 153.239 307.116 158.553Z" fill="#F2C02A"/>
<path d="M163.817 311.067C179.636 317.386 183.951 329.334 188.035 343.379C200.748 387.41 246.768 420.929 293.68 422.537C298.397 422.537 303.085 422.537 309.643 422.537C309.643 436.439 310.218 449.22 309.212 461.858C308.981 464.73 303.459 469.239 300.065 469.325C234.285 471.307 173.021 429.114 163.788 358.602C162.547 351.087 161.817 343.496 161.602 335.883C161.602 327.898 162.954 319.913 163.817 311.067Z" fill="#F2C02A"/>
<path d="M155.162 420.9C144.405 431.183 133.791 441.35 123.178 451.46C51.2714 402.633 55.442 280.306 133.906 238.199C133.043 249.085 135.373 259.827 131.03 266.203C100.57 312.158 109.458 379.138 151.164 415.271C152.685 417.006 154.025 418.893 155.162 420.9Z" fill="#F2C02A"/>
<path d="M423.316 161.683H467.956C481.618 226.452 423.776 325.571 312.091 305.495C318.62 295.212 324.402 286.94 337.978 283.838C385.263 272.981 421.792 226.394 423.345 177.366C423.46 172.655 423.316 167.945 423.316 161.683Z" fill="#F2C02A"/>
</svg>
