<svg width="230" height="232" viewBox="0 0 230 232" fill="none" xmlns="http://www.w3.org/2000/svg">
<path d="M45.9256 203.783L112.98 172.175C113.588 171.894 114.249 171.748 114.918 171.748C115.587 171.748 116.248 171.894 116.856 172.175L183.878 203.718C184.664 204.1 185.543 204.246 186.41 204.139C187.276 204.032 188.094 203.677 188.763 203.116L208.547 185.545C208.949 185.203 209.256 184.762 209.436 184.265C209.617 183.769 209.665 183.234 209.576 182.713C209.488 182.193 209.265 181.704 208.93 181.295C208.596 180.887 208.161 180.572 207.668 180.382L122.409 138.156C120.093 137.039 117.555 136.458 114.983 136.458C112.412 136.458 109.874 137.039 107.558 138.156L22.6898 179.861C22.2041 180.047 21.774 180.354 21.4407 180.753C21.1073 181.153 20.8815 181.63 20.7851 182.141C20.6888 182.652 20.7249 183.18 20.8901 183.673C21.0553 184.166 21.3442 184.609 21.7289 184.958L41.0895 203.116C41.7466 203.679 42.5521 204.042 43.4096 204.161C44.2671 204.279 45.1405 204.148 45.9256 203.783Z" fill="white"/>
<path d="M107.478 2.1969L109.106 61.8475C109.109 62.1017 109.071 62.3547 108.992 62.5965C108.568 63.8501 107.868 64.9926 106.944 65.9396C106.02 66.8866 104.894 67.614 103.652 68.0682C102.165 68.5398 100.577 68.5948 99.0615 68.2273C97.5457 67.8599 96.1596 67.0839 95.0539 65.9837C94.9315 65.8538 94.8224 65.712 94.7283 65.5603L63.7901 14.7198C63.6445 14.4814 63.5481 14.2163 63.507 13.9401C63.4659 13.6639 63.4809 13.3822 63.5508 13.1118C63.6206 12.8415 63.744 12.5879 63.9137 12.3662C64.0835 12.1444 64.2963 11.9591 64.539 11.8211C70.6934 8.27837 77.2546 5.4951 84.079 3.53225C90.9723 1.55424 98.0806 0.422278 105.247 0.161325C105.528 0.143731 105.81 0.182906 106.076 0.276497C106.342 0.370088 106.586 0.516178 106.794 0.7061C107.002 0.896022 107.17 1.12589 107.287 1.382C107.405 1.63811 107.47 1.91524 107.478 2.1969Z" fill="white"/>
<path d="M122.051 2.19604L120.423 61.8466C120.412 62.1013 120.45 62.3558 120.537 62.5957C120.955 63.8527 121.653 64.9984 122.578 65.9463C123.503 66.8941 124.631 67.6194 125.878 68.0673C127.362 68.5375 128.947 68.5919 130.46 68.2244C131.973 67.8569 133.356 67.0816 134.459 65.9829C134.587 65.8533 134.701 65.7114 134.801 65.5595L165.739 14.7189C165.885 14.4806 165.981 14.2154 166.022 13.9392C166.063 13.663 166.048 13.3814 165.979 13.111C165.909 12.8406 165.785 12.587 165.615 12.3653C165.446 12.1436 165.233 11.9582 164.99 11.8203C158.837 8.27463 152.276 5.49121 145.45 3.53139C138.557 1.55338 131.449 0.421418 124.282 0.160465C124 0.140544 123.718 0.178087 123.451 0.270816C123.184 0.363546 122.939 0.509529 122.73 0.699898C122.521 0.890267 122.354 1.12104 122.237 1.37823C122.12 1.63542 122.057 1.91366 122.051 2.19604Z" fill="white"/>
<path d="M176.99 19.2137L147.68 71.1942C147.551 71.4139 147.468 71.6577 147.436 71.9107C147.221 73.219 147.304 74.5588 147.679 75.8305C148.054 77.1021 148.711 78.2728 149.602 79.2551C150.696 80.3634 152.072 81.1511 153.582 81.5329C155.092 81.9147 156.677 81.876 158.167 81.4209C158.339 81.3685 158.504 81.2917 158.655 81.1929L209.752 50.6919C209.993 50.5498 210.203 50.3607 210.369 50.1359C210.536 49.911 210.655 49.6549 210.72 49.3829C210.786 49.1109 210.795 48.8286 210.749 48.5526C210.703 48.2767 210.602 48.0129 210.452 47.7769C206.642 41.762 202.121 36.2286 196.986 31.2969C191.821 26.3264 186.069 22.0061 179.856 18.432C179.372 18.1556 178.799 18.0827 178.261 18.2293C177.724 18.3759 177.266 18.73 176.99 19.2137Z" fill="white"/>
<path d="M216.266 64.5662L163.98 93.39C163.757 93.5163 163.559 93.6818 163.394 93.8785C162.523 94.8761 161.889 96.0579 161.539 97.3355C161.189 98.613 161.133 99.9532 161.375 101.255C161.72 102.774 162.474 104.169 163.557 105.289C164.639 106.409 166.008 107.21 167.514 107.606C167.692 107.63 167.873 107.63 168.051 107.606L227.55 108.518C227.83 108.523 228.108 108.471 228.368 108.366C228.628 108.262 228.864 108.106 229.062 107.909C229.261 107.712 229.419 107.477 229.525 107.218C229.632 106.959 229.686 106.681 229.683 106.401C229.611 99.2583 228.677 92.1501 226.899 85.2314C225.106 78.289 222.476 71.5903 219.067 65.2827C218.783 64.8243 218.333 64.4936 217.811 64.36C217.289 64.2264 216.735 64.3003 216.266 64.5662Z" fill="white"/>
<path d="M53.8565 19.2127L83.1664 71.1932C83.2886 71.4161 83.3711 71.6586 83.4105 71.9097C83.6253 73.218 83.5422 74.5579 83.1672 75.8295C82.7922 77.1012 82.1354 78.2718 81.2451 79.2541C80.151 80.3624 78.7743 81.1502 77.2645 81.532C75.7547 81.9137 74.1694 81.875 72.6801 81.4199C72.5021 81.3677 72.3321 81.291 72.1752 81.192L21.0943 50.6909C20.8533 50.5489 20.6437 50.3598 20.4773 50.1349C20.311 49.91 20.1913 49.654 20.1259 49.382C20.0606 49.11 20.0508 48.8276 20.0969 48.5517C20.143 48.2757 20.2441 48.0119 20.3943 47.7759C24.204 41.761 28.7254 36.2276 33.8606 31.2959C39.0249 26.3254 44.7777 22.0051 50.9906 18.4311C51.4753 18.159 52.0474 18.0885 52.5836 18.2348C53.1198 18.381 53.577 18.7323 53.8565 19.2127Z" fill="white"/>
<path d="M14.6306 64.5671L66.8675 93.3746C67.0907 93.5009 67.2895 93.6663 67.4539 93.8631C68.3252 94.8607 68.9592 96.0425 69.3088 97.3201C69.6585 98.5976 69.7148 99.9378 69.473 101.24C69.1282 102.759 68.3733 104.154 67.2909 105.274C66.2086 106.393 64.8403 107.195 63.3342 107.591C63.1505 107.616 62.9641 107.616 62.7804 107.591L3.29753 108.503C3.01698 108.51 2.73812 108.459 2.4774 108.356C2.21669 108.252 1.97971 108.096 1.78051 107.899C1.58132 107.701 1.424 107.465 1.31817 107.205C1.21235 106.945 1.15986 106.667 1.16433 106.386C1.23624 99.2429 2.1715 92.1347 3.9491 85.216C5.74178 78.2735 8.37153 71.5748 11.7811 65.2673C12.0678 64.7985 12.5283 64.4619 13.0619 64.3307C13.5956 64.1996 14.1593 64.2845 14.6306 64.5671Z" fill="white"/>
<path d="M1.99448 122.149L61.6404 120.781C61.8897 120.771 62.1385 120.81 62.373 120.895C63.6258 121.322 64.7665 122.025 65.7108 122.952C66.655 123.88 67.3787 125.008 67.8281 126.252C68.2981 127.738 68.3508 129.324 67.9803 130.838C67.6099 132.351 66.8305 133.734 65.7275 134.834C65.5922 134.962 65.445 135.077 65.2878 135.176L14.3536 165.889C14.1141 166.035 13.8475 166.132 13.5701 166.173C13.2926 166.214 13.0101 166.199 12.7384 166.13C12.4668 166.06 12.2118 165.936 11.9887 165.766C11.7655 165.596 11.5784 165.383 11.4389 165.14C7.95495 158.94 5.22182 152.347 3.29722 145.501C1.36092 138.602 0.267404 131.493 0.0405669 124.331C0.0138367 123.783 0.203952 123.247 0.569694 122.839C0.935437 122.43 1.44727 122.182 1.99448 122.149Z" fill="white"/>
<path d="M227.533 122.149L167.888 120.781C167.633 120.77 167.379 120.809 167.139 120.895C165.887 121.324 164.747 122.028 163.803 122.955C162.859 123.882 162.135 125.009 161.684 126.253C161.218 127.74 161.169 129.327 161.542 130.84C161.915 132.353 162.696 133.735 163.801 134.835C163.933 134.966 164.08 135.081 164.24 135.177L215.191 165.89C215.431 166.033 215.697 166.128 215.974 166.168C216.251 166.208 216.533 166.193 216.804 166.123C217.075 166.054 217.33 165.931 217.553 165.762C217.777 165.593 217.964 165.382 218.105 165.14C221.589 158.941 224.322 152.348 226.247 145.501C228.183 138.602 229.277 131.494 229.503 124.331C229.526 123.782 229.332 123.246 228.964 122.838C228.596 122.43 228.082 122.183 227.533 122.149Z" fill="white"/>
<path d="M114.92 181.44L51.708 211.339C70.3609 224.173 92.474 231.034 115.115 231.011C137.549 230.875 159.421 223.974 177.871 211.209L114.92 181.44Z" fill="white"/>
<path d="M106.468 110.277L93.0182 105.245C92.7763 105.153 92.565 104.995 92.4084 104.788C92.2519 104.582 92.1563 104.336 92.1325 104.078C92.1088 103.82 92.1578 103.561 92.274 103.33C92.3903 103.098 92.569 102.904 92.7901 102.77L138.286 75.4766L138.383 75.5906L118.094 99.4475C117.953 99.6183 117.854 99.8202 117.806 100.037C117.758 100.253 117.762 100.478 117.817 100.692C117.873 100.907 117.978 101.106 118.126 101.271C118.273 101.437 118.458 101.565 118.664 101.646L132.131 106.678C132.371 106.775 132.58 106.936 132.734 107.145C132.888 107.353 132.981 107.6 133.003 107.859C133.025 108.117 132.975 108.376 132.858 108.608C132.742 108.839 132.563 109.033 132.342 109.169L86.8468 136.446L86.749 136.332L107.038 112.475C107.183 112.306 107.285 112.104 107.335 111.887C107.386 111.669 107.383 111.443 107.327 111.227C107.271 111.011 107.164 110.812 107.014 110.647C106.865 110.481 106.677 110.354 106.468 110.277Z" fill="white"/>
</svg>
