<svg width="1048" height="233" viewBox="0 0 1048 233" fill="none" xmlns="http://www.w3.org/2000/svg">
<path d="M52.6091 197.02L114.195 167.99C114.753 167.731 115.36 167.597 115.975 167.597C116.589 167.597 117.196 167.731 117.754 167.99L179.31 196.96C180.032 197.311 180.839 197.445 181.635 197.347C182.431 197.248 183.182 196.922 183.797 196.407L201.967 180.269C202.337 179.955 202.618 179.55 202.784 179.094C202.95 178.638 202.994 178.147 202.912 177.668C202.831 177.19 202.626 176.741 202.319 176.366C202.012 175.991 201.612 175.702 201.159 175.528L122.854 136.746C120.727 135.719 118.396 135.186 116.034 135.186C113.673 135.186 111.342 135.719 109.215 136.746L31.2684 175.049C30.8223 175.22 30.4274 175.502 30.1212 175.868C29.815 176.235 29.6076 176.674 29.5191 177.143C29.4306 177.613 29.4638 178.097 29.6155 178.55C29.7672 179.003 30.0326 179.409 30.3859 179.73L48.1675 196.407C48.7709 196.925 49.5107 197.258 50.2983 197.366C51.0859 197.475 51.888 197.355 52.6091 197.02Z" fill="#F2C02A"/>
<path d="M109.142 11.8743L110.637 66.6597C110.64 66.8933 110.605 67.1257 110.533 67.3477C110.143 68.4991 109.5 69.5483 108.651 70.4181C107.802 71.2879 106.769 71.9559 105.627 72.3731C104.262 72.8062 102.804 72.8568 101.412 72.5193C100.02 72.1818 98.7466 71.4691 97.731 70.4587C97.6186 70.3394 97.5185 70.2091 97.432 70.0698L69.0171 23.3758C68.8834 23.1569 68.7949 22.9134 68.7571 22.6597C68.7194 22.406 68.7331 22.1473 68.7973 21.899C68.8615 21.6507 68.9747 21.4178 69.1306 21.2142C69.2866 21.0105 69.482 20.8403 69.705 20.7136C75.3574 17.4598 81.3834 14.9035 87.6512 13.1007C93.9823 11.2841 100.511 10.2444 107.093 10.0048C107.351 9.9886 107.61 10.0246 107.854 10.1105C108.098 10.1965 108.323 10.3307 108.514 10.5051C108.705 10.6795 108.859 10.8906 108.967 11.1259C109.075 11.3611 109.134 11.6156 109.142 11.8743Z" fill="#F2C02A"/>
<path d="M122.527 11.8743L121.031 66.6598C121.021 66.8937 121.056 67.1274 121.136 67.3477C121.519 68.5022 122.161 69.5545 123.01 70.425C123.86 71.2956 124.896 71.9617 126.041 72.3731C127.404 72.805 128.86 72.8549 130.25 72.5174C131.639 72.1798 132.909 71.4678 133.923 70.4587C134.04 70.3396 134.145 70.2094 134.237 70.0698L162.652 23.3758C162.785 23.1569 162.873 22.9134 162.911 22.6597C162.949 22.406 162.935 22.1474 162.871 21.899C162.807 21.6507 162.694 21.4178 162.538 21.2142C162.382 21.0105 162.187 20.8403 161.964 20.7136C156.313 17.4571 150.286 14.9007 144.017 13.1008C137.686 11.2841 131.158 10.2444 124.576 10.0048C124.317 9.98647 124.057 10.021 123.812 10.1061C123.567 10.1913 123.342 10.3254 123.15 10.5002C122.959 10.675 122.805 10.887 122.697 11.1232C122.59 11.3594 122.532 11.615 122.527 11.8743Z" fill="#F2C02A"/>
<path d="M172.984 27.5038L146.065 75.2447C145.946 75.4465 145.87 75.6705 145.84 75.9028C145.643 77.1044 145.719 78.335 146.064 79.5029C146.408 80.6708 147.012 81.746 147.83 82.6482C148.834 83.6661 150.098 84.3896 151.485 84.7402C152.872 85.0909 154.328 85.0553 155.696 84.6374C155.855 84.5892 156.006 84.5187 156.145 84.428L203.074 56.4146C203.295 56.2841 203.488 56.1105 203.641 55.9039C203.794 55.6974 203.903 55.4622 203.963 55.2124C204.023 54.9626 204.032 54.7032 203.99 54.4498C203.948 54.1964 203.855 53.9541 203.717 53.7374C200.218 48.213 196.065 43.131 191.349 38.6015C186.606 34.0364 181.322 30.0684 175.616 26.7859C175.172 26.532 174.645 26.465 174.152 26.5997C173.658 26.7343 173.238 27.0595 172.984 27.5038Z" fill="#F2C02A"/>
<path d="M209.057 69.1575L161.036 95.6304C160.831 95.7464 160.649 95.8984 160.498 96.0791C159.698 96.9953 159.115 98.0807 158.794 99.2541C158.473 100.427 158.421 101.658 158.643 102.854C158.96 104.249 159.653 105.531 160.647 106.559C161.641 107.587 162.898 108.324 164.281 108.687C164.445 108.709 164.611 108.709 164.775 108.687L219.421 109.525C219.678 109.529 219.934 109.481 220.172 109.385C220.411 109.289 220.628 109.146 220.81 108.965C220.993 108.784 221.137 108.568 221.235 108.33C221.333 108.093 221.382 107.838 221.38 107.581C221.314 101.02 220.456 94.4916 218.823 88.1372C217.177 81.761 214.761 75.6086 211.63 69.8156C211.369 69.3945 210.956 69.0907 210.476 68.968C209.997 68.8453 209.488 68.9132 209.057 69.1575Z" fill="#F2C02A"/>
<path d="M59.8947 27.5038L86.814 75.2447C86.9263 75.4495 87.0021 75.6721 87.0382 75.9028C87.2356 77.1044 87.1592 78.335 86.8148 79.5029C86.4704 80.6708 85.8671 81.746 85.0494 82.6482C84.0446 83.6661 82.7802 84.3896 81.3935 84.7402C80.0069 85.0909 78.5509 85.0553 77.183 84.6374C77.0195 84.5894 76.8634 84.5189 76.7193 84.428L29.8046 56.4146C29.5833 56.2841 29.3907 56.1105 29.2379 55.9039C29.0851 55.6974 28.9752 55.4622 28.9152 55.2124C28.8552 54.9626 28.8462 54.7032 28.8885 54.4498C28.9308 54.1964 29.0237 53.9541 29.1616 53.7374C32.6606 48.213 36.8133 43.131 41.5296 38.6015C46.2728 34.0364 51.5563 30.0684 57.2625 26.7859C57.7077 26.536 58.2331 26.4713 58.7256 26.6056C59.218 26.7399 59.638 27.0625 59.8947 27.5038Z" fill="#F2C02A"/>
<path d="M23.8673 69.1575L71.8437 95.6154C72.0487 95.7314 72.2312 95.8834 72.3822 96.0641C73.1825 96.9803 73.7647 98.0658 74.0859 99.2391C74.407 100.412 74.4588 101.643 74.2367 102.839C73.92 104.234 73.2266 105.516 72.2325 106.544C71.2385 107.572 69.9818 108.309 68.5985 108.672C68.4298 108.695 68.2587 108.695 68.0899 108.672L13.4585 109.51C13.2008 109.516 12.9447 109.47 12.7052 109.375C12.4658 109.279 12.2481 109.137 12.0652 108.955C11.8822 108.773 11.7378 108.557 11.6406 108.318C11.5434 108.079 11.4952 107.823 11.4993 107.566C11.5653 101.005 12.4243 94.4766 14.0569 88.1222C15.7034 81.746 18.1186 75.5937 21.2501 69.8006C21.5134 69.37 21.9364 69.0608 22.4265 68.9404C22.9166 68.8199 23.4343 68.898 23.8673 69.1575Z" fill="#F2C02A"/>
<path d="M12.2617 122.043L67.0428 120.787C67.2718 120.778 67.5003 120.814 67.7157 120.892C68.8663 121.284 69.914 121.93 70.7812 122.781C71.6485 123.633 72.3131 124.669 72.7259 125.812C73.1575 127.177 73.2059 128.634 72.8657 130.024C72.5255 131.414 71.8096 132.684 70.7966 133.694C70.6724 133.812 70.5371 133.917 70.3928 134.009L23.6128 162.216C23.3928 162.35 23.148 162.439 22.8932 162.477C22.6384 162.515 22.3789 162.501 22.1293 162.437C21.8798 162.373 21.6457 162.26 21.4407 162.104C21.2358 161.947 21.0639 161.752 20.9358 161.528C17.736 155.834 15.2258 149.779 13.4582 143.491C11.6798 137.154 10.6755 130.626 10.4671 124.048C10.4426 123.545 10.6172 123.052 10.9531 122.677C11.289 122.302 11.7591 122.074 12.2617 122.043Z" fill="#F2C02A"/>
<path d="M219.406 122.043L164.625 120.787C164.391 120.777 164.158 120.812 163.937 120.892C162.788 121.286 161.741 121.932 160.874 122.784C160.007 123.635 159.342 124.67 158.927 125.812C158.499 127.178 158.454 128.636 158.797 130.025C159.14 131.415 159.857 132.684 160.872 133.695C160.993 133.815 161.128 133.921 161.275 134.009L208.07 162.216C208.291 162.348 208.535 162.435 208.79 162.472C209.044 162.509 209.303 162.495 209.552 162.431C209.801 162.367 210.035 162.254 210.24 162.099C210.445 161.945 210.617 161.75 210.747 161.528C213.947 155.834 216.457 149.779 218.225 143.491C220.003 137.154 221.007 130.626 221.216 124.048C221.236 123.543 221.058 123.051 220.72 122.676C220.382 122.301 219.91 122.074 219.406 122.043Z" fill="#F2C02A"/>
<path d="M115.976 176.5L57.9199 203.96C75.0515 215.747 95.361 222.048 116.155 222.027C136.76 221.902 156.848 215.564 173.793 203.84L115.976 176.5Z" fill="#F2C02A"/>
<path d="M108.214 111.14L95.8614 106.519C95.6392 106.434 95.4451 106.289 95.3013 106.099C95.1576 105.91 95.0697 105.684 95.0479 105.447C95.0261 105.21 95.0712 104.972 95.1779 104.76C95.2847 104.547 95.4488 104.369 95.6518 104.245L137.437 79.1783L137.526 79.283L118.892 101.194C118.762 101.351 118.671 101.536 118.627 101.735C118.583 101.934 118.587 102.14 118.638 102.338C118.689 102.535 118.786 102.717 118.921 102.869C119.056 103.021 119.226 103.139 119.416 103.213L131.784 107.835C132.005 107.924 132.196 108.072 132.338 108.264C132.479 108.455 132.565 108.682 132.585 108.919C132.605 109.156 132.559 109.394 132.452 109.607C132.345 109.82 132.181 109.998 131.978 110.123L90.1933 135.175L90.1035 135.07L108.738 113.159C108.871 113.004 108.965 112.818 109.011 112.619C109.057 112.419 109.054 112.211 109.003 112.013C108.952 111.815 108.853 111.632 108.716 111.48C108.578 111.328 108.406 111.211 108.214 111.14Z" fill="#F2C02A"/>
<path d="M285.251 74.9594H301.309L283.631 158.206H267.471L285.251 74.9594Z" fill="white"/>
<path d="M320.711 159.385C315.911 159.42 311.145 158.587 306.642 156.925C302.541 155.466 298.869 153.005 295.962 149.765L303.946 140.028C306.668 142.453 309.749 144.441 313.08 145.92C316.03 147.253 319.226 147.955 322.464 147.983C324.418 148.032 326.366 147.723 328.209 147.069C329.641 146.557 330.902 145.654 331.847 144.462C332.699 143.356 333.155 141.998 333.144 140.602C333.171 139.706 332.942 138.821 332.482 138.051C332.023 137.281 331.353 136.658 330.551 136.257C327.975 134.972 325.262 133.983 322.464 133.31C319.056 132.249 315.711 130.995 312.446 129.554C310.168 128.616 308.147 127.146 306.554 125.267C305.208 123.447 304.522 121.224 304.609 118.962C304.533 114.791 305.856 110.715 308.366 107.383C311.015 103.95 314.457 101.21 318.398 99.3989C322.785 97.3708 327.575 96.3635 332.407 96.4526C336.487 96.3853 340.544 97.0798 344.369 98.5003C347.954 99.9171 351.161 102.146 353.738 105.012L345.415 114.381C343.342 112.26 340.901 110.533 338.211 109.284C335.812 108.289 333.237 107.788 330.639 107.811C328.787 107.78 326.943 108.069 325.189 108.665C323.73 109.138 322.434 110.011 321.447 111.184C320.511 112.373 320.031 113.856 320.092 115.368C320.051 116.118 320.221 116.865 320.583 117.524C320.945 118.183 321.484 118.727 322.139 119.095C324.556 120.296 327.094 121.235 329.711 121.894C333.381 122.907 336.966 124.203 340.436 125.768C342.93 126.845 345.124 128.514 346.829 130.629C348.278 132.674 349.018 135.137 348.936 137.641C349.003 141.665 347.768 145.602 345.415 148.867C342.878 152.26 339.48 154.915 335.574 156.556C330.876 158.54 325.809 159.504 320.711 159.385Z" fill="white"/>
<path d="M360.382 148.69C360.385 147.991 360.424 147.293 360.5 146.598C360.58 145.861 360.698 145.128 360.853 144.403L368.219 109.313H360.721L363.299 97.3509H370.812L375.113 77.3899H390.714L386.604 97.3215H398.801L396.223 109.283H384.026L377.573 139.026C377.498 139.33 377.458 139.641 377.456 139.954V141C377.409 141.572 377.496 142.147 377.711 142.679C377.926 143.211 378.262 143.685 378.693 144.064C379.584 144.742 380.682 145.091 381.801 145.051C382.854 145.043 383.901 144.884 384.91 144.58C385.955 144.27 386.972 143.931 387.959 143.578C388.776 143.29 389.577 142.961 390.36 142.591L390.831 155.127C389.126 155.924 387.381 156.632 385.602 157.249C383.627 157.952 381.597 158.489 379.533 158.854C377.439 159.206 375.321 159.383 373.198 159.385C369.985 159.49 366.815 158.617 364.109 156.88C361.624 155.221 360.382 152.49 360.382 148.69Z" fill="white"/>
<path d="M421.429 159.385C417.256 159.508 413.145 158.357 409.644 156.085C406.362 153.834 403.766 150.719 402.145 147.084C400.352 143.157 399.451 138.88 399.508 134.563C399.485 129.579 400.42 124.638 402.263 120.008C404.013 115.548 406.531 111.43 409.702 107.84C412.718 104.404 416.357 101.57 420.427 99.4873C424.365 97.4656 428.729 96.415 433.155 96.4232C436.864 96.3023 440.512 97.3849 443.555 99.5091C446.598 101.633 448.872 104.685 450.037 108.208L452.379 97.4249H468.098L458.832 139.512C458.758 139.895 458.699 140.264 458.655 140.602C458.611 140.941 458.655 141.28 458.655 141.575C458.655 143.181 459.642 144.02 461.601 144.094L458.655 157.455C457.255 157.691 456.018 157.897 454.972 158.044C454.056 158.192 453.13 158.271 452.202 158.28C449.905 158.349 447.633 157.773 445.647 156.616C444.872 156.092 444.248 155.374 443.837 154.534C443.426 153.694 443.242 152.761 443.305 151.828C443.286 151.47 443.286 151.111 443.305 150.752C443.337 150.256 443.411 149.763 443.526 149.279C443.644 148.778 443.791 148.248 443.938 147.674C441.129 151.335 437.522 154.308 433.391 156.365C429.693 158.289 425.597 159.323 421.429 159.385ZM428.352 146.009C429.788 145.995 431.211 145.746 432.566 145.272C434.117 144.747 435.6 144.04 436.985 143.166C438.447 142.228 439.8 141.131 441.021 139.895C442.258 138.666 443.359 137.308 444.306 135.844L447.356 121.466C447.065 119.36 446.305 117.347 445.131 115.574C444.016 113.87 442.531 112.44 440.786 111.39C439.12 110.4 437.213 109.89 435.276 109.917C432.732 109.913 430.23 110.567 428.014 111.817C425.695 113.123 423.629 114.835 421.915 116.87C420.111 119 418.663 121.408 417.628 124C416.594 126.582 416.059 129.336 416.052 132.117C416.004 134.574 416.508 137.01 417.525 139.247C418.457 141.297 419.941 143.047 421.812 144.3C423.768 145.519 426.049 146.115 428.352 146.009Z" fill="white"/>
<path d="M483.463 97.3508H497.649L495.189 108.709C497.163 106.122 499.559 103.886 502.275 102.094C505.012 100.3 507.987 98.8967 511.113 97.9254C514.265 96.9425 517.549 96.4458 520.851 96.4522C523.744 96.2852 526.626 96.9279 529.174 98.3084C531.09 99.4837 532.569 101.253 533.387 103.346C534.282 105.615 534.722 108.038 534.684 110.476C534.682 112.123 534.564 113.767 534.33 115.397C534.105 117.019 533.79 118.627 533.387 120.214L525.373 158.206H509.611L516.873 124.236C517.167 123.172 517.384 122.089 517.521 120.995C517.639 120.017 517.698 119.033 517.698 118.048C517.865 115.923 517.211 113.814 515.872 112.156C515.24 111.516 514.481 111.016 513.643 110.688C512.806 110.361 511.909 110.213 511.01 110.255C508.881 110.319 506.795 110.868 504.911 111.861C502.61 113.012 500.495 114.502 498.636 116.281C496.655 118.14 495.01 120.328 493.775 122.748L486.158 158.221H470.322L483.463 97.3508Z" fill="white"/>
<path d="M572.334 159.384C568.318 159.56 564.351 158.439 561.021 156.188C558.094 154.071 555.901 151.095 554.745 147.673L552.521 158.206H538.629L556.793 72.6166H572.629L565.145 108.134C567.815 104.627 571.193 101.721 575.059 99.6045C578.729 97.535 582.867 96.4395 587.08 96.4224C591.054 96.2737 594.966 97.433 598.217 99.7222C601.242 101.986 603.578 105.047 604.964 108.561C606.527 112.507 607.303 116.721 607.248 120.965C607.257 126.061 606.255 131.108 604.301 135.814C602.46 140.339 599.798 144.484 596.449 148.041C593.253 151.47 589.453 154.281 585.239 156.335C581.227 158.324 576.812 159.367 572.334 159.384ZM571.156 146.008C573.689 146.004 576.185 145.393 578.433 144.226C580.807 143.018 582.935 141.38 584.709 139.394C586.556 137.332 588.023 134.957 589.04 132.382C590.109 129.692 590.65 126.821 590.631 123.926C590.641 121.542 590.18 119.179 589.275 116.973C588.481 114.926 587.166 113.124 585.46 111.743C583.781 110.43 581.699 109.737 579.567 109.784C577.371 109.781 575.203 110.285 573.233 111.257C571.037 112.337 569.02 113.748 567.252 115.441C565.366 117.189 563.707 119.169 562.317 121.333L559.253 135.961C559.537 137.857 560.264 139.658 561.374 141.221C562.447 142.723 563.874 143.937 565.528 144.756C567.282 145.604 569.208 146.033 571.156 146.008Z" fill="white"/>
<path d="M627.916 159.384C618.37 159.384 613.603 154.43 613.612 144.52C613.61 143.081 613.709 141.644 613.907 140.219C614.098 138.746 614.393 137.155 614.776 135.446L622.996 97.3506H638.582L631.216 131.999C630.705 133.923 630.428 135.901 630.391 137.891C630.391 143.293 632.773 145.994 637.536 145.994C639.476 145.966 641.393 145.561 643.178 144.8C645.283 143.889 647.239 142.668 648.982 141.176C651.035 139.407 652.83 137.359 654.315 135.092L662.373 97.3506H678.091L668.943 140.204C668.802 140.58 668.703 140.97 668.649 141.368C668.627 141.677 668.627 141.987 668.649 142.296C668.649 143.916 669.591 144.771 671.462 144.844L668.649 158.206L664.892 158.795C663.962 158.947 663.018 158.986 662.078 158.913C659.853 159.102 657.627 158.553 655.744 157.351C654.971 156.787 654.352 156.039 653.943 155.174C653.534 154.31 653.348 153.357 653.402 152.402C653.402 152.019 653.402 151.577 653.402 151.076C653.402 150.575 653.52 149.971 653.637 149.279C653.755 148.586 653.932 147.806 654.168 146.833C650.822 150.743 646.711 153.927 642.088 156.188C637.664 158.304 632.82 159.396 627.916 159.384Z" fill="white"/>
<path d="M694.989 159.384C691.724 159.589 688.495 158.606 685.9 156.615C684.808 155.638 683.951 154.427 683.393 153.072C682.834 151.718 682.588 150.255 682.674 148.792C682.668 148.03 682.707 147.267 682.792 146.509C682.863 145.775 682.981 145.047 683.145 144.329L698.377 72.6166H714.096L700.027 138.598C699.939 139.07 699.895 139.512 699.85 139.895C699.828 140.287 699.828 140.681 699.85 141.073C699.85 144.285 701.451 145.89 704.653 145.89C705.647 145.869 706.635 145.735 707.599 145.493C708.722 145.217 709.806 144.801 710.825 144.255L710.354 156.217C707.914 157.287 705.358 158.073 702.738 158.559C700.187 159.08 697.592 159.356 694.989 159.384Z" fill="white"/>
<path d="M770.384 158.795C764.591 158.785 758.843 157.788 753.384 155.849C748.262 154.138 743.52 151.452 739.419 147.938L749.51 133.973C750.301 135.014 751.228 135.946 752.265 136.743C753.931 138.068 755.739 139.204 757.656 140.131C760.041 141.337 762.532 142.323 765.096 143.077C767.912 143.912 770.835 144.329 773.772 144.314C776.439 144.401 779.095 143.945 781.58 142.974C783.427 142.259 785.031 141.033 786.206 139.438C787.225 137.889 787.74 136.062 787.679 134.209C787.702 133.263 787.507 132.324 787.108 131.465C786.71 130.607 786.118 129.852 785.381 129.259C783.504 127.778 781.386 126.632 779.12 125.871C776.458 124.889 773.448 123.858 770.09 122.777C766.644 121.73 763.321 120.317 760.175 118.564C757.702 117.218 755.605 115.273 754.077 112.907C752.657 110.486 751.947 107.714 752.029 104.908C751.97 100.433 752.98 96.0091 754.975 92.0035C756.867 88.2635 759.546 84.9769 762.827 82.3692C766.201 79.6935 770.035 77.6566 774.141 76.3588C778.425 74.9823 782.899 74.2912 787.399 74.3112C794.019 74.2759 800.544 75.8857 806.388 78.9957C808.802 80.2945 811.082 81.8291 813.194 83.5772L803.338 96.7028C802.725 95.843 801.974 95.0913 801.114 94.4783C799.743 93.4058 798.261 92.4824 796.694 91.7236C794.775 90.7804 792.773 90.0161 790.713 89.4402C788.501 88.8068 786.209 88.4894 783.908 88.4974C781.254 88.4242 778.615 88.9268 776.174 89.9705C774.253 90.7793 772.603 92.118 771.415 93.8301C770.331 95.5568 769.782 97.5665 769.839 99.6049C769.819 100.403 769.971 101.196 770.283 101.93C770.596 102.664 771.062 103.323 771.651 103.862C773.187 105.166 774.957 106.166 776.866 106.808C779.135 107.663 781.875 108.596 785.086 109.607C788.865 110.68 792.534 112.105 796.046 113.865C798.91 115.264 801.385 117.349 803.25 119.934C805.068 122.716 805.97 125.998 805.828 129.318C805.954 133.965 804.943 138.572 802.882 142.738C801.009 146.379 798.273 149.505 794.912 151.842C791.435 154.228 787.566 155.983 783.48 157.028C779.211 158.187 774.808 158.782 770.384 158.795Z" fill="white"/>
<path d="M838.619 159.384C833.564 159.584 828.552 158.381 824.138 155.908C820.471 153.722 817.565 150.462 815.815 146.568C814.024 142.494 813.125 138.084 813.178 133.634C813.106 123.89 816.849 114.505 823.608 107.486C826.976 103.977 831.027 101.194 835.511 99.3099C840.285 97.3241 845.41 96.322 850.581 96.3636C855.667 96.154 860.715 97.3356 865.18 99.7813C868.861 101.94 871.788 105.18 873.562 109.062C875.4 113.159 876.32 117.609 876.258 122.099C876.279 126.949 875.343 131.755 873.503 136.241C871.709 140.662 869.083 144.698 865.769 148.13C862.383 151.618 858.337 154.397 853.866 156.305C849.054 158.383 843.86 159.432 838.619 159.384ZM841.079 146.008C843.517 146.01 845.924 145.461 848.121 144.403C850.425 143.296 852.48 141.733 854.161 139.806C857.95 135.434 860.014 129.829 859.965 124.044C860.016 121.489 859.555 118.949 858.609 116.575C857.808 114.549 856.424 112.806 854.632 111.566C852.692 110.326 850.422 109.704 848.121 109.784C845.713 109.782 843.34 110.352 841.197 111.448C836.478 113.9 832.843 118.023 831.003 123.013C829.984 125.811 829.485 128.771 829.53 131.748C829.476 134.303 829.917 136.844 830.826 139.232C831.587 141.264 832.962 143.009 834.759 144.226C836.637 145.447 838.841 146.068 841.079 146.008Z" fill="white"/>
<path d="M894.201 159.384C890.937 159.587 887.709 158.603 885.112 156.615C884.02 155.637 883.163 154.427 882.605 153.072C882.046 151.718 881.8 150.255 881.886 148.792C881.886 148.011 881.886 147.245 882.004 146.509C882.075 145.775 882.193 145.047 882.357 144.329L897.604 72.6165H913.308L899.239 138.598C899.239 139.07 899.107 139.512 899.062 139.895C899.018 140.278 899.062 140.675 899.062 141.073C899.062 144.284 900.668 145.89 903.88 145.89C904.873 145.867 905.862 145.734 906.826 145.492C907.947 145.212 909.031 144.796 910.052 144.255L909.581 156.217C907.135 157.287 904.575 158.073 901.95 158.559C899.399 159.08 896.804 159.356 894.201 159.384Z" fill="white"/>
<path d="M940.046 159.385C935.873 159.508 931.762 158.357 928.261 156.085C924.979 153.834 922.384 150.719 920.763 147.084C918.969 143.156 918.068 138.88 918.126 134.563C918.102 129.579 919.037 124.638 920.88 120.008C922.608 115.554 925.1 111.436 928.246 107.84C931.262 104.404 934.901 101.57 938.971 99.4872C942.908 97.4655 947.272 96.4149 951.698 96.4231C955.407 96.3022 959.056 97.3848 962.099 99.509C965.142 101.633 967.415 104.685 968.58 108.208L970.923 97.4248H986.641L977.375 139.512C977.375 139.895 977.243 140.264 977.198 140.602C977.154 140.941 977.198 141.28 977.198 141.575C977.198 143.18 978.185 144.02 980.145 144.094L977.198 157.455C975.725 157.691 974.561 157.897 973.516 158.044C972.604 158.192 971.684 158.27 970.761 158.28C968.458 158.349 966.182 157.772 964.191 156.615C963.416 156.092 962.791 155.374 962.38 154.534C961.969 153.694 961.786 152.761 961.848 151.828C961.83 151.469 961.83 151.11 961.848 150.752C961.886 150.256 961.965 149.763 962.084 149.279C962.202 148.778 962.334 148.248 962.482 147.673C959.672 151.335 956.065 154.307 951.934 156.365C948.258 158.278 944.189 159.311 940.046 159.385ZM946.97 146.009C948.405 145.995 949.828 145.746 951.183 145.272C952.735 144.75 954.219 144.043 955.602 143.166C957.064 142.228 958.418 141.131 959.639 139.895C960.875 138.666 961.976 137.308 962.924 135.844L965.973 121.466C965.689 119.359 964.928 117.343 963.749 115.574C962.612 113.862 961.101 112.431 959.329 111.39C957.664 110.4 955.757 109.89 953.82 109.917C951.275 109.913 948.773 110.567 946.557 111.817C944.238 113.123 942.173 114.835 940.458 116.87C938.654 119 937.207 121.408 936.172 124C935.137 126.582 934.602 129.336 934.595 132.117C934.539 134.575 935.043 137.013 936.068 139.247C936.99 141.299 938.471 143.05 940.341 144.3C942.322 145.537 944.637 146.134 946.97 146.009Z" fill="white"/>
<path d="M1002.08 97.3506H1016.5L1013.69 110.358C1016.38 106.449 1019.8 103.097 1023.76 100.488C1026.99 98.2684 1030.76 96.9789 1034.66 96.7614H1036.55C1036.89 96.7444 1037.24 96.8261 1037.54 96.9971L1034.59 110.962C1030.25 111.012 1025.97 111.929 1022 113.658C1018.21 115.236 1014.97 117.883 1012.67 121.274L1004.82 158.206H988.938L1002.08 97.3506Z" fill="white"/>
</svg>
