<svg width="348" height="349" viewBox="0 0 348 349" fill="none" xmlns="http://www.w3.org/2000/svg">
<path d="M69.8633 307.607L171.158 259.858C172.076 259.433 173.074 259.213 174.086 259.213C175.097 259.213 176.095 259.433 177.013 259.858L278.258 307.508C279.445 308.085 280.773 308.306 282.083 308.144C283.392 307.983 284.627 307.446 285.638 306.598L315.524 280.055C316.132 279.538 316.595 278.872 316.868 278.122C317.14 277.372 317.213 276.564 317.079 275.778C316.945 274.991 316.609 274.253 316.103 273.636C315.598 273.018 314.941 272.543 314.196 272.257L185.401 208.469C181.903 206.78 178.068 205.903 174.184 205.903C170.3 205.903 166.465 206.78 162.967 208.469L34.7625 271.469C34.0288 271.75 33.3791 272.214 32.8756 272.817C32.372 273.42 32.0308 274.142 31.8853 274.914C31.7398 275.686 31.7943 276.482 32.0438 277.227C32.2933 277.972 32.7298 278.641 33.311 279.169L62.5578 306.598C63.5503 307.45 64.7671 307.998 66.0625 308.177C67.3579 308.355 68.6772 308.158 69.8633 307.607Z" fill="#F2C02A"/>
<path d="M162.847 3.08281L165.306 93.1928C165.311 93.5769 165.253 93.9591 165.135 94.3244C164.494 96.2181 163.436 97.9439 162.04 99.3745C160.644 100.805 158.944 101.904 157.066 102.59C154.821 103.302 152.422 103.386 150.133 102.83C147.843 102.275 145.749 101.103 144.079 99.4412C143.894 99.245 143.729 99.0307 143.587 98.8016L96.8505 22.0003C96.6306 21.6402 96.485 21.2397 96.4229 20.8224C96.3608 20.4052 96.3834 19.9797 96.4889 19.5713C96.5945 19.1628 96.7808 18.7798 97.0372 18.4448C97.2937 18.1099 97.6151 17.8299 97.9819 17.6215C107.279 12.2697 117.19 8.06518 127.5 5.10004C137.913 2.112 148.651 0.402012 159.477 0.00780833C159.902 -0.0187691 160.328 0.0404099 160.729 0.181791C161.131 0.323172 161.499 0.543861 161.814 0.830763C162.128 1.11767 162.381 1.46491 162.559 1.8518C162.736 2.23869 162.834 2.65733 162.847 3.08281Z" fill="#F2C02A"/>
<path d="M184.862 3.08285L182.402 93.1929C182.385 93.5777 182.444 93.9621 182.575 94.3244C183.206 96.2233 184.26 97.9541 185.658 99.3859C187.055 100.818 188.76 101.913 190.643 102.59C192.885 103.3 195.279 103.382 197.565 102.827C199.85 102.272 201.94 101.101 203.606 99.4413C203.799 99.2454 203.972 99.0312 204.123 98.8017L250.859 22.0003C251.079 21.6403 251.224 21.2397 251.286 20.8225C251.348 20.4052 251.326 19.9797 251.22 19.5713C251.115 19.1629 250.928 18.7798 250.671 18.4449C250.415 18.1099 250.094 17.8299 249.727 17.6215C240.433 12.2654 230.521 8.06063 220.21 5.10007C209.797 2.11203 199.059 0.402046 188.232 0.00784236C187.807 -0.022251 187.38 0.0344628 186.977 0.174543C186.574 0.314623 186.203 0.53515 185.888 0.822727C185.573 1.1103 185.319 1.45892 185.143 1.84744C184.967 2.23596 184.871 2.65628 184.862 3.08285Z" fill="#F2C02A"/>
<path d="M267.853 28.7899L223.577 107.313C223.382 107.645 223.256 108.014 223.208 108.396C222.884 110.372 223.009 112.396 223.576 114.317C224.142 116.238 225.135 118.006 226.48 119.49C228.133 121.165 230.212 122.355 232.492 122.931C234.773 123.508 237.169 123.45 239.418 122.762C239.68 122.683 239.928 122.567 240.157 122.418L317.345 76.3418C317.709 76.1273 318.026 75.8416 318.278 75.5019C318.529 75.1622 318.709 74.7754 318.808 74.3645C318.907 73.9536 318.921 73.527 318.852 73.1102C318.782 72.6934 318.629 72.2949 318.402 71.9384C312.647 62.852 305.817 54.4932 298.06 47.0431C290.258 39.5346 281.568 33.0082 272.183 27.6091C271.452 27.1916 270.586 27.0814 269.774 27.3028C268.962 27.5243 268.271 28.0592 267.853 28.7899Z" fill="#F2C02A"/>
<path d="M327.186 97.3011L248.201 140.843C247.864 141.034 247.564 141.284 247.316 141.581C246 143.088 245.042 144.873 244.513 146.803C243.985 148.733 243.901 150.758 244.266 152.725C244.787 155.019 245.927 157.127 247.562 158.818C249.197 160.51 251.264 161.721 253.539 162.319C253.809 162.355 254.081 162.355 254.351 162.319L344.232 163.697C344.655 163.703 345.075 163.625 345.467 163.467C345.86 163.309 346.216 163.074 346.517 162.776C346.817 162.478 347.054 162.123 347.216 161.732C347.377 161.341 347.458 160.922 347.455 160.499C347.346 149.708 345.934 138.97 343.248 128.519C340.54 118.031 336.567 107.912 331.417 98.3835C330.988 97.6909 330.308 97.1913 329.519 96.9895C328.731 96.7877 327.894 96.8993 327.186 97.3011Z" fill="#F2C02A"/>
<path d="M81.8461 28.7899L126.123 107.313C126.307 107.65 126.432 108.016 126.491 108.396C126.816 110.372 126.69 112.396 126.124 114.317C125.557 116.238 124.565 118.006 123.22 119.49C121.567 121.165 119.488 122.355 117.207 122.931C114.926 123.508 112.531 123.449 110.282 122.762C110.013 122.683 109.756 122.567 109.519 122.418L32.3545 76.3418C31.9905 76.1272 31.6738 75.8416 31.4225 75.5019C31.1712 75.1622 30.9903 74.7754 30.8916 74.3645C30.7929 73.9536 30.7782 73.527 30.8478 73.1102C30.9174 72.6934 31.0701 72.2949 31.297 71.9384C37.0521 62.852 43.8823 54.4932 51.6396 47.0431C59.4411 39.5346 68.1313 33.0081 77.5168 27.6091C78.249 27.1981 79.1132 27.0916 79.9232 27.3126C80.7332 27.5335 81.424 28.0641 81.8461 28.7899Z" fill="#F2C02A"/>
<path d="M22.5891 97.301L101.5 140.819C101.837 141.009 102.137 141.259 102.386 141.556C103.702 143.063 104.66 144.849 105.188 146.779C105.716 148.709 105.801 150.733 105.436 152.7C104.915 154.995 103.774 157.102 102.139 158.794C100.504 160.485 98.4374 161.696 96.1622 162.294C95.8847 162.332 95.6032 162.332 95.3257 162.294L5.46898 163.672C5.04516 163.682 4.62392 163.606 4.23007 163.449C3.83622 163.292 3.47824 163.058 3.17732 162.759C2.87641 162.46 2.63876 162.104 2.4789 161.711C2.31903 161.319 2.23975 160.898 2.24649 160.474C2.35513 149.683 3.76797 138.945 6.45326 128.494C9.16133 118.006 13.1339 107.887 18.2845 98.3588C18.7176 97.6506 19.4132 97.1421 20.2194 96.944C21.0256 96.7459 21.8771 96.8742 22.5891 97.301Z" fill="#F2C02A"/>
<path d="M3.50031 184.287L93.6032 182.22C93.9799 182.205 94.3558 182.264 94.71 182.393C96.6025 183.037 98.3258 184.1 99.7522 185.501C101.179 186.902 102.272 188.605 102.951 190.486C103.661 192.73 103.74 195.126 103.181 197.413C102.621 199.699 101.444 201.788 99.7774 203.45C99.5731 203.643 99.3506 203.816 99.1132 203.967L22.1704 250.363C21.8085 250.583 21.4059 250.729 20.9868 250.791C20.5677 250.853 20.1408 250.831 19.7305 250.726C19.3201 250.62 18.935 250.434 18.5978 250.177C18.2607 249.92 17.9781 249.599 17.7673 249.231C12.5044 239.865 8.37564 229.906 5.46828 219.563C2.54324 209.141 0.891337 198.403 0.54867 187.583C0.50829 186.756 0.795484 185.946 1.34799 185.329C1.90049 184.712 2.67368 184.338 3.50031 184.287Z" fill="#F2C02A"/>
<path d="M344.208 184.287L254.105 182.221C253.721 182.204 253.336 182.262 252.974 182.393C251.083 183.041 249.361 184.104 247.935 185.505C246.509 186.905 245.415 188.607 244.733 190.486C244.029 192.733 243.955 195.13 244.519 197.416C245.083 199.702 246.263 201.789 247.931 203.45C248.131 203.649 248.354 203.823 248.595 203.967L325.563 250.363C325.926 250.58 326.327 250.723 326.746 250.783C327.164 250.844 327.591 250.821 328 250.716C328.41 250.61 328.794 250.425 329.132 250.17C329.469 249.915 329.752 249.596 329.965 249.231C335.228 239.865 339.357 229.906 342.264 219.563C345.189 209.141 346.841 198.403 347.184 187.583C347.218 186.754 346.925 185.944 346.369 185.328C345.813 184.711 345.036 184.338 344.208 184.287Z" fill="#F2C02A"/>
<path d="M174.087 273.856L78.5977 319.021C106.775 338.409 140.18 348.772 174.382 348.738C208.272 348.533 241.312 338.107 269.183 318.825L174.087 273.856Z" fill="#F2C02A"/>
<path d="M161.322 166.353L141.004 158.752C140.638 158.613 140.319 158.374 140.082 158.062C139.846 157.751 139.702 157.379 139.666 156.99C139.63 156.6 139.704 156.209 139.879 155.859C140.055 155.51 140.325 155.216 140.659 155.013L209.386 113.783L209.534 113.955L178.884 149.994C178.671 150.252 178.521 150.557 178.448 150.884C178.376 151.211 178.382 151.551 178.466 151.875C178.55 152.199 178.709 152.499 178.932 152.749C179.154 153 179.434 153.194 179.746 153.315L200.088 160.917C200.451 161.063 200.767 161.307 200.999 161.622C201.232 161.937 201.373 162.31 201.406 162.7C201.439 163.09 201.363 163.482 201.187 163.832C201.011 164.181 200.741 164.475 200.408 164.681L131.681 205.886L131.533 205.713L162.182 169.674C162.401 169.419 162.556 169.114 162.631 168.785C162.707 168.457 162.703 168.115 162.619 167.789C162.534 167.463 162.372 167.162 162.146 166.912C161.92 166.662 161.638 166.471 161.322 166.353Z" fill="#F2C02A"/>
</svg>
